<!-- icon666.com - MILLIONS vector ICONS FREE --><svg id="Layer_3" viewBox="0 0 48 48" xmlns="http://www.w3.org/2000/svg" data-name="Layer 3"><path d="m11.5 37.75h19a2.2525 2.2525 0 0 0 2.25-2.25v-5.5a6.7573 6.7573 0 0 0 -6.75-6.75h-.4365a7.75 7.75 0 1 0 -9.127 0h-.4365a6.7573 6.7573 0 0 0 -6.75 6.75v5.5a2.2525 2.2525 0 0 0 2.25 2.25zm3.25-20.75a6.25 6.25 0 1 1 6.25 6.25 6.257 6.257 0 0 1 -6.25-6.25zm-4 13a5.2558 5.2558 0 0 1 5.25-5.25h10a5.2558 5.2558 0 0 1 5.25 5.25v5.5a.7508.7508 0 0 1 -.75.75h-19a.7508.7508 0 0 1 -.75-.75z"></path><path d="m38.53 21.47-3-3a.75.75 0 1 0 -1.06 1.06l1.72 1.72h-6.19a.75.75 0 0 0 0 1.5h6.19l-1.72 1.72a.75.75 0 0 0 0 1.0606.7623.7623 0 0 0 1.0606 0l3-3a.7625.7625 0 0 0 -.0006-1.0606z"></path></svg>